<svg width="40" height="40" viewBox="0 0 40 40" xmlns="http://www.w3.org/2000/svg"><path d="M15.612 26.33c1.01 0 1.786-.777 1.786-1.786 0-1.01-.777-1.787-1.786-1.787-1.01 0-1.787.777-1.787 1.787 0 .932.777 1.786 1.787 1.786zm8.776-.078c1.01 0 1.787-.776 1.787-1.786s-.777-1.786-1.787-1.786c-1.01 0-1.786.776-1.786 1.786.078 1.01.854 1.786 1.786 1.786zm-13.825 6.136c1.01 0 1.787-.776 1.787-1.786s-.777-1.786-1.787-1.786c-1.01 0-1.786.776-1.786 1.786s.776 1.786 1.786 1.786zm18.874 0c1.01 0 1.786-.776 1.786-1.786s-.776-1.786-1.786-1.786-1.787.776-1.787 1.786c.078 1.01.855 1.786 1.787 1.786zm-9.398-21.28c1.01 0 1.785-.778 1.785-1.788s-.776-1.786-1.786-1.786-1.788.777-1.788 1.786c0 1.01.777 1.787 1.787 1.787zM3.183 3.183h33.632v33.632H3.184V3.184zM40 0H0v40h40V0zm69.748 16.777c0 .543-.156 1.01-.544 1.32-.388.31-.854.544-1.476.544h-2.563v-3.65h2.563c.622 0 1.088.156 1.476.544.31.233.544.7.544 1.243zm.932 3.34l.233-.156c.31-.232.62-.465.854-.776.233-.31.388-.7.544-1.087.156-.388.234-.854.234-1.32 0-.622-.078-1.165-.31-1.71-.234-.543-.545-1.01-.933-1.397-.387-.388-.853-.7-1.475-.932-.543-.233-1.242-.31-1.942-.31h-5.514v14.057h2.795v-5.592H108.272l1.864 5.592h2.874l-2.33-6.368zm-14.292-7.69h2.796v14.058h-2.796V12.427zm-17.553 0l-2.175 8.855-2.563-8.855H72l-2.563 8.855-2.097-8.855h-2.874l3.728 14.058h2.33l2.563-8.466 2.563 8.465h2.33l3.806-14.058h-2.95zm9.087 4.194l-1.786 5.05h3.495l-1.708-5.05zm1.243-4.115l4.893 13.98h-2.874L90.33 24h-4.893l-.854 2.485H81.71L86.6 12.427h2.563v.078zM59.96 21.67h-3.494l1.786-5.05 1.71 5.05zm-3.028-9.243L52.04 26.485h2.873L55.767 24h4.97l.855 2.485h2.874l-4.97-14.058H56.93z" fill="#000" fill-rule="evenodd"></path></svg>
